<svg xmlns="http://www.w3.org/2000/svg" viewBox="0 0 512 512" role="img" aria-labelledby="title desc">
  <title id="title">Chandra logo concept C</title>
  <desc id="desc">A minimalist crescent moon above a calendar horizon on a dark navy square.</desc>
  <defs>
    <linearGradient id="bg" x1="80" y1="32" x2="432" y2="480" gradientUnits="userSpaceOnUse">
      <stop offset="0" stop-color="#151B2F"/>
      <stop offset="1" stop-color="#0B1020"/>
    </linearGradient>
  </defs>

  <rect width="512" height="512" rx="112" fill="url(#bg)"/>
  <path d="M318 111c-40 22-67 65-67 114 0 63 45 116 104 127-25 24-59 39-96 39-76 0-137-61-137-137s61-137 137-137c21 0 41 5 59 14Z" fill="#DDBB6A"/>
  <path d="M169 359h176c28 0 51 23 51 51v14H118v-14c0-28 23-51 51-51Z" fill="#1D2440" stroke="#DDBB6A" stroke-width="8"/>
  <path d="M160 398h192" stroke="#8EA8FF" stroke-width="8" stroke-linecap="round" opacity="0.78"/>
  <path d="M193 359v-26M257 359v-26M321 359v-26" stroke="#DDBB6A" stroke-width="10" stroke-linecap="round"/>
  <path d="M384 138l6 16 16 6-16 6-6 16-6-16-16-6 16-6 6-16Z" fill="#8EA8FF"/>
</svg>
